# xmcd
#
# Track frame offsets:
#	150
#	15573
#	30270
#	43550
#	56465
#	70613
#	84960
#	98768
#	111223
#	124128
#	138263
#	150833
#	163663
#	176713
#	188803
#	202360
#	214913
#	227670
#	236663
#	244633
#
# Disc length: 3410 seconds
#
# Revision: 2
# Processed by: cddbd v1.5.1PL2 Copyright (c) Steve Scherf et al.
# Submitted via: audiograbber 1.83.01
#
DISCID=010d5014
DTITLE=Arthur Smith - Guitar Boogie
DYEAR=1900
DGENRE=western Swing
TTITLE0=Guitar Boogie
TTITLE1=More Guitar Boogie
TTITLE2=New York To Orleans
TTITLE3=Guitar Artistry
TTITLE4=After You've Gone
TTITLE5=Fas Anybody Here Seen Kilroy
TTITLE6=Boomrang
TTITLE7=I'm Wise To You
TTITLE8=South
TTITLE9=Fingers On Fire
TTITLE10=Rainbow
TTITLE11=String Menagerie
TTITLE12=I'm Lookin' Over A 4 Leaf Clover
TTITLE13=The New Look Blues
TTITLE14=No O'Clock Jump
TTITLE15=Guitar Jingle Bells
TTITLE16=Maybe I'm Right
TTITLE17=Darktown Strutter's Ball
TTITLE18=Shortenin' Bread
TTITLE19=After You've Gone
EXTD=
EXTT0=
EXTT1=
EXTT2=
EXTT3=
EXTT4=
EXTT5=
EXTT6=
EXTT7=
EXTT8=
EXTT9=
EXTT10=
EXTT11=
EXTT12=
EXTT13=
EXTT14=
EXTT15=
EXTT16=
EXTT17=
EXTT18=
EXTT19=
PLAYORDER=
